<svg width="6" height="8" viewBox="0 0 6 8" fill="none" xmlns="http://www.w3.org/2000/svg">
<path d="M0.297 8V7.253C0.882 6.806 1.3935 6.401 1.8315 6.038C2.2695 5.672 2.643 5.3405 2.952 5.0435C3.261 4.7465 3.5115 4.4765 3.7035 4.2335C3.8955 3.9875 4.035 3.7625 4.122 3.5585C4.212 3.3515 4.257 3.1565 4.257 2.9735C4.257 2.7455 4.203 2.5385 4.095 2.3525C3.987 2.1635 3.84 2.0135 3.654 1.9025C3.471 1.7915 3.264 1.736 3.033 1.736C2.811 1.736 2.6055 1.793 2.4165 1.907C2.2305 2.018 2.067 2.183 1.926 2.402C1.785 2.621 1.668 2.8895 1.575 3.2075L0.351 2.636C0.441 2.297 0.57 1.9925 0.738 1.7225C0.909 1.4495 1.113 1.217 1.35 1.025C1.59 0.833 1.8585 0.686 2.1555 0.583999C2.4525 0.482 2.7735 0.431 3.1185 0.431C3.6435 0.431 4.11 0.5405 4.518 0.7595C4.926 0.9755 5.2455 1.271 5.4765 1.646C5.7105 2.021 5.8275 2.4485 5.8275 2.9285C5.8275 3.1685 5.7945 3.404 5.7285 3.635C5.6625 3.866 5.559 4.1 5.418 4.337C5.277 4.571 5.094 4.8125 4.869 5.0615C4.644 5.3075 4.3725 5.567 4.0545 5.84C3.7395 6.11 3.372 6.398 2.952 6.704H5.9625V8H0.297Z" fill="white"/>
</svg>
